<mxfile host="app.diagrams.net" modified="2023-03-05T20:00:06.556Z" agent="5.0 (Macintosh; Intel Mac OS X 10_15_7) AppleWebKit/605.1.15 (KHTML, like Gecko) Version/16.3 Safari/605.1.15" etag="MhnDdpZzU1Zd45wfk2O_" version="21.0.2" type="github">
  <diagram id="C5RBs43oDa-KdzZeNtuy" name="Page-1">
    <mxGraphModel dx="795" dy="479" grid="1" gridSize="10" guides="1" tooltips="1" connect="1" arrows="1" fold="1" page="1" pageScale="1" pageWidth="827" pageHeight="1169" math="0" shadow="0">
      <root>
        <mxCell id="WIyWlLk6GJQsqaUBKTNV-0" />
        <mxCell id="WIyWlLk6GJQsqaUBKTNV-1" parent="WIyWlLk6GJQsqaUBKTNV-0" />
        <mxCell id="jMjvVQzOl-HutWm02Fmo-2" value="" style="edgeStyle=orthogonalEdgeStyle;rounded=0;orthogonalLoop=1;jettySize=auto;html=1;" edge="1" parent="WIyWlLk6GJQsqaUBKTNV-1" source="jMjvVQzOl-HutWm02Fmo-0" target="jMjvVQzOl-HutWm02Fmo-1">
          <mxGeometry relative="1" as="geometry" />
        </mxCell>
        <mxCell id="jMjvVQzOl-HutWm02Fmo-0" value="initializing the widget" style="rounded=0;whiteSpace=wrap;html=1;fillColor=#dae8fc;strokeColor=#6c8ebf;" vertex="1" parent="WIyWlLk6GJQsqaUBKTNV-1">
          <mxGeometry x="360" y="40" width="120" height="60" as="geometry" />
        </mxCell>
        <mxCell id="jMjvVQzOl-HutWm02Fmo-5" value="" style="edgeStyle=orthogonalEdgeStyle;rounded=0;orthogonalLoop=1;jettySize=auto;html=1;" edge="1" parent="WIyWlLk6GJQsqaUBKTNV-1" source="jMjvVQzOl-HutWm02Fmo-1" target="jMjvVQzOl-HutWm02Fmo-4">
          <mxGeometry relative="1" as="geometry" />
        </mxCell>
        <mxCell id="jMjvVQzOl-HutWm02Fmo-23" value="" style="edgeStyle=orthogonalEdgeStyle;rounded=0;orthogonalLoop=1;jettySize=auto;html=1;entryX=0.5;entryY=0;entryDx=0;entryDy=0;" edge="1" parent="WIyWlLk6GJQsqaUBKTNV-1" source="jMjvVQzOl-HutWm02Fmo-1" target="jMjvVQzOl-HutWm02Fmo-37">
          <mxGeometry relative="1" as="geometry">
            <mxPoint x="420" y="310" as="targetPoint" />
          </mxGeometry>
        </mxCell>
        <mxCell id="jMjvVQzOl-HutWm02Fmo-1" value="" style="rounded=0;whiteSpace=wrap;html=1;fillColor=#dae8fc;strokeColor=#6c8ebf;" vertex="1" parent="WIyWlLk6GJQsqaUBKTNV-1">
          <mxGeometry x="360" y="180" width="120" height="60" as="geometry" />
        </mxCell>
        <mxCell id="jMjvVQzOl-HutWm02Fmo-3" value="render login or registration form" style="text;strokeColor=none;align=center;fillColor=none;html=1;verticalAlign=middle;whiteSpace=wrap;rounded=0;" vertex="1" parent="WIyWlLk6GJQsqaUBKTNV-1">
          <mxGeometry x="365" y="195" width="110" height="30" as="geometry" />
        </mxCell>
        <mxCell id="jMjvVQzOl-HutWm02Fmo-4" value="now state != init state" style="rounded=0;whiteSpace=wrap;html=1;fillColor=#dae8fc;strokeColor=#6c8ebf;" vertex="1" parent="WIyWlLk6GJQsqaUBKTNV-1">
          <mxGeometry x="70" y="180" width="120" height="60" as="geometry" />
        </mxCell>
        <mxCell id="jMjvVQzOl-HutWm02Fmo-6" value="on click alternative option" style="text;strokeColor=none;align=center;fillColor=none;html=1;verticalAlign=middle;whiteSpace=wrap;rounded=0;" vertex="1" parent="WIyWlLk6GJQsqaUBKTNV-1">
          <mxGeometry x="190" y="180" width="170" height="30" as="geometry" />
        </mxCell>
        <mxCell id="jMjvVQzOl-HutWm02Fmo-7" value="change login to reg / reg to login" style="text;strokeColor=none;align=center;fillColor=none;html=1;verticalAlign=middle;whiteSpace=wrap;rounded=0;" vertex="1" parent="WIyWlLk6GJQsqaUBKTNV-1">
          <mxGeometry x="70" y="240" width="120" height="30" as="geometry" />
        </mxCell>
        <mxCell id="jMjvVQzOl-HutWm02Fmo-19" value="" style="edgeStyle=orthogonalEdgeStyle;rounded=0;orthogonalLoop=1;jettySize=auto;html=1;" edge="1" parent="WIyWlLk6GJQsqaUBKTNV-1" source="jMjvVQzOl-HutWm02Fmo-9" target="jMjvVQzOl-HutWm02Fmo-18">
          <mxGeometry relative="1" as="geometry" />
        </mxCell>
        <mxCell id="jMjvVQzOl-HutWm02Fmo-9" value="loading spinner instead of login / reg form" style="rounded=0;whiteSpace=wrap;html=1;fillColor=#dae8fc;strokeColor=#6c8ebf;" vertex="1" parent="WIyWlLk6GJQsqaUBKTNV-1">
          <mxGeometry x="360" y="450" width="120" height="60" as="geometry" />
        </mxCell>
        <mxCell id="jMjvVQzOl-HutWm02Fmo-11" value="on click login / reg btn" style="text;strokeColor=none;align=center;fillColor=none;html=1;verticalAlign=middle;whiteSpace=wrap;rounded=0;" vertex="1" parent="WIyWlLk6GJQsqaUBKTNV-1">
          <mxGeometry x="310" y="380" width="110" height="60" as="geometry" />
        </mxCell>
        <mxCell id="jMjvVQzOl-HutWm02Fmo-14" value="request to firebase and wait response" style="text;strokeColor=none;align=center;fillColor=none;html=1;verticalAlign=middle;whiteSpace=wrap;rounded=0;" vertex="1" parent="WIyWlLk6GJQsqaUBKTNV-1">
          <mxGeometry x="310" y="530" width="110" height="30" as="geometry" />
        </mxCell>
        <mxCell id="jMjvVQzOl-HutWm02Fmo-31" value="" style="edgeStyle=orthogonalEdgeStyle;rounded=0;orthogonalLoop=1;jettySize=auto;html=1;exitX=0;exitY=0.5;exitDx=0;exitDy=0;" edge="1" parent="WIyWlLk6GJQsqaUBKTNV-1" source="jMjvVQzOl-HutWm02Fmo-18" target="jMjvVQzOl-HutWm02Fmo-30">
          <mxGeometry relative="1" as="geometry">
            <mxPoint x="420" y="670" as="sourcePoint" />
          </mxGeometry>
        </mxCell>
        <mxCell id="jMjvVQzOl-HutWm02Fmo-34" value="" style="edgeStyle=orthogonalEdgeStyle;rounded=0;orthogonalLoop=1;jettySize=auto;html=1;" edge="1" parent="WIyWlLk6GJQsqaUBKTNV-1" source="jMjvVQzOl-HutWm02Fmo-18" target="jMjvVQzOl-HutWm02Fmo-33">
          <mxGeometry relative="1" as="geometry" />
        </mxCell>
        <mxCell id="jMjvVQzOl-HutWm02Fmo-18" value="get response" style="rhombus;whiteSpace=wrap;html=1;fillColor=#dae8fc;strokeColor=#6c8ebf;rounded=0;" vertex="1" parent="WIyWlLk6GJQsqaUBKTNV-1">
          <mxGeometry x="330" y="580" width="180" height="80" as="geometry" />
        </mxCell>
        <mxCell id="jMjvVQzOl-HutWm02Fmo-24" style="edgeStyle=orthogonalEdgeStyle;rounded=0;orthogonalLoop=1;jettySize=auto;html=1;entryX=0.5;entryY=0;entryDx=0;entryDy=0;exitX=0.5;exitY=1;exitDx=0;exitDy=0;" edge="1" parent="WIyWlLk6GJQsqaUBKTNV-1" source="jMjvVQzOl-HutWm02Fmo-37" target="jMjvVQzOl-HutWm02Fmo-9">
          <mxGeometry relative="1" as="geometry">
            <mxPoint x="342.5" y="350" as="sourcePoint" />
          </mxGeometry>
        </mxCell>
        <mxCell id="jMjvVQzOl-HutWm02Fmo-30" value="success message and redirect" style="rounded=0;whiteSpace=wrap;html=1;fillColor=#dae8fc;strokeColor=#6c8ebf;" vertex="1" parent="WIyWlLk6GJQsqaUBKTNV-1">
          <mxGeometry x="200" y="750" width="120" height="60" as="geometry" />
        </mxCell>
        <mxCell id="jMjvVQzOl-HutWm02Fmo-32" value="success" style="text;strokeColor=none;align=center;fillColor=none;html=1;verticalAlign=middle;whiteSpace=wrap;rounded=0;" vertex="1" parent="WIyWlLk6GJQsqaUBKTNV-1">
          <mxGeometry x="260" y="670" width="60" height="30" as="geometry" />
        </mxCell>
        <mxCell id="jMjvVQzOl-HutWm02Fmo-33" value="failed and description error" style="whiteSpace=wrap;html=1;fillColor=#dae8fc;strokeColor=#6c8ebf;rounded=0;" vertex="1" parent="WIyWlLk6GJQsqaUBKTNV-1">
          <mxGeometry x="520" y="750" width="120" height="60" as="geometry" />
        </mxCell>
        <mxCell id="jMjvVQzOl-HutWm02Fmo-36" value="failed" style="text;strokeColor=none;align=center;fillColor=none;html=1;verticalAlign=middle;whiteSpace=wrap;rounded=0;" vertex="1" parent="WIyWlLk6GJQsqaUBKTNV-1">
          <mxGeometry x="520" y="670" width="60" height="30" as="geometry" />
        </mxCell>
        <mxCell id="jMjvVQzOl-HutWm02Fmo-37" value="login or registration" style="whiteSpace=wrap;html=1;fillColor=#dae8fc;strokeColor=#6c8ebf;" vertex="1" parent="WIyWlLk6GJQsqaUBKTNV-1">
          <mxGeometry x="360" y="320" width="120" height="60" as="geometry" />
        </mxCell>
      </root>
    </mxGraphModel>
  </diagram>
</mxfile>
